Coordinates
version=1
nRows=8
nColumns=36
inDegrees=yes

Units are S.I. units (second, meters, Newtons, ...)
If the header above contains a line with 'inDegrees', this indicates whether rotational values are in degrees (yes) or radians (no).

endheader
time	pelvis_tilt	pelvis_list	pelvis_rotation	pelvis_tx	pelvis_ty	pelvis_tz	hip_flexion_r	hip_adduction_r	hip_rotation_r	knee_angle_r	knee_angle_r_beta	ankle_angle_r	subtalar_angle_r	mtp_angle_r	hip_flexion_l	hip_adduction_l	hip_rotation_l	knee_angle_l	knee_angle_l_beta	ankle_angle_l	subtalar_angle_l	mtp_angle_l	lumbar_extension	lumbar_bending	lumbar_rotation	arm_flex_r	arm_add_r	arm_rot_r	elbow_flex_r	pro_sup_r	arm_flex_l	arm_add_l	arm_rot_l	elbow_flex_l	pro_sup_l
      0.00000000	      3.23822572	     -2.73537953	     -4.25441920	      0.95174380	      0.94635034	      0.75145775	     21.69173114	      0.62101556	      0.38686808	     29.44129175	      0.51384748	     -1.15557810	    -11.61179859	     -6.71537020	     -3.20379950	     -0.91607095	      5.18436156	     14.46175188	      0.25240519	     12.41468886	     -7.33052819	     -6.71537020	    -19.56917804	      1.89003227	      0.88111065	      7.82699201	    -11.14340523	     -6.18047387	     27.84184804	     88.24189853	     18.51565594	    -13.25702739	      7.28940885	     27.59658197	     86.57324270
      0.01666670	      2.41283997	     -1.72749371	     -3.04757176	      0.94942121	      0.94219176	      0.75318827	     23.24046858	     -0.67699552	     -1.02792551	     25.23588628	      0.44044931	     -0.24611223	     -7.97562947	     -6.77926057	     -2.24038060	      0.00835846	      7.20883554	     16.53151731	      0.28852941	     11.84593438	     -8.61500019	     -6.77926057	    -19.46391597	      0.38136713	      0.31516033	      7.55727049	    -10.62961170	     -8.26140718	     26.70875451	     87.73521423	     21.27194757	    -13.62337025	      9.51987827	     27.31129989	     87.34503287
      0.03333330	      0.69274142	     -0.59681712	     -2.04269922	      0.94882779	      0.93556644	      0.75564780	     25.51598787	     -1.97598013	     -0.65855764	     20.73992181	      0.36197992	      0.91275438	     -6.54795732	     -6.79862675	     -0.87856316	      0.89657495	      8.86224336	     17.57667005	      0.30677076	     14.28686755	     -7.04785867	     -6.79862675	    -17.81161986	     -0.46197641	     -0.98308282	      6.97083816	    -10.12223041	     -9.52679230	     25.85945454	     87.09014717	     22.03134594	    -14.41148974	     10.50010408	     27.94541765	     87.31934885
      0.05000000	     -1.00324328	     -0.20362686	     -1.14139281	      0.94916464	      0.92728204	      0.75697462	     28.41247362	     -2.67129014	     -0.10857063	     18.32585808	      0.31984656	      4.45411592	     -4.08221455	     -6.84931719	      0.67540381	      1.12659826	      8.89344491	     19.30462212	      0.33692922	     17.80345090	     -5.28474669	     -6.84931719	    -16.21943746	     -0.48154279	     -2.17874245	      6.16656449	    -10.18324910	    -10.13755187	     25.51341239	     85.90965457	     22.42370888	    -15.22191216	     11.33467521	     29.06668025	     86.59677942
      0.06666670	     -2.24812374	     -0.23075250	     -0.53963658	      0.94895916	      0.91971505	      0.75855470	     30.82735054	     -2.80527948	      0.80887479	     16.37253616	      0.28575466	      7.95528591	     -1.64226342	     -6.86766625	      1.39703513	      1.08674932	      8.58897017	     20.81160487	      0.36323103	     21.15328753	     -4.70866693	     -6.86766625	    -15.02926424	     -0.02789096	     -3.36725272	      5.54546716	    -10.30421025	    -10.32195059	     25.60775214	     84.23683164	     22.60664635	    -15.83019133	     11.54067003	     30.08889419	     85.15437115
      0.08333330	     -3.51654877	     -0.49134803	     -0.17566491	      0.94750046	      0.91433078	      0.76095753	     33.04434268	     -2.52052797	      2.29686988	     14.50769823	      0.25320710	     10.33664211	     -0.26656311	     -6.89709863	      1.82722201	      0.59754383	      7.40430271	     21.65308697	      0.37791766	     24.22216557	     -2.86137206	     -6.89709863	    -13.61447012	      0.53211214	     -4.37802751	      5.20153133	    -10.75790364	     -9.65088854	     24.67740864	     84.64968440	     22.74908539	    -16.64018376	     12.57177644	     31.19031241	     85.97285652
      0.10000000	     -4.24007134	     -0.86259421	      0.25376939	      0.94543807	      0.91169149	      0.76261999	     34.17835888	     -2.19240432	      3.39909261	     12.52491678	      0.21860104	     11.22498111	      1.10979151	     -6.91296912	      1.45516801	     -0.01746503	      6.86475569	     21.84807161	      0.38132078	     25.80996167	     -2.49268266	     -6.91296912	    -12.87257460	      1.26548871	     -5.16647954	      4.73533212	    -11.25566112	     -9.87166174	     24.05072212	     84.84011975	     23.33670744	    -16.87286905	     12.83369560	     31.65417788	     86.30052995
      0.11666670	     -4.67699803	     -0.98507248	      0.59163760	      0.94418400	      0.90980811	      0.76479662	     34.72925908	     -1.98759373	      4.54037835	     11.17879416	      0.19510676	     10.88144722	      2.09535501	     -6.92004572	      0.72159220	     -0.42234736	      6.55649235	     21.69171735	      0.37859189	     26.67218792	     -2.52628671	     -6.92004572	    -12.39012704	      1.62322871	     -5.88935690	      4.23989718	    -11.61966230	    -10.00925416	     23.61662194	     84.84719806	     23.92813902	    -17.03326381	     12.96368660	     31.89494076	     86.37579279
